# xmcd
#
# Track frame offsets:
#	150
#	19263
#	38584
#	57092
#	74140
#	90600
#	102839
#	121950
#	141273
#	159782
#	176831
#	193292
#
# Disc length: 2740 seconds
#
# Revision: 1
# Processed by: cddbd v1.5.2PL0 Copyright (c) Steve Scherf et al.
# Submitted via: audiograbber 1.83.01
#
DISCID=a60ab20c
DTITLE=Various Artist - CB20036 Hot Hits Vol. 36
DYEAR=1900
DGENRE=Country
TTITLE0=Keith Harling - Papa Bear (Vocals)
TTITLE1=Anita Cohran - Will You Be Here (Vocals)
TTITLE2=Brooks and Dunn and Reba - If You See Him/ If You See Her (Vocals)
TTITLE3=Collin Raye - I Can Still Feel You (Vocals)
TTITLE4=Suzy Bogguss - Somebody To Love (Vocals)
TTITLE5=Wade Hayes - When The Wrong One Loves You Right (Vocals)
TTITLE6=Keith Haling - Papa Bear
TTITLE7=Anita Cohran - Will  You Be Here
TTITLE8=Brooks and Dunn and Reba - If You See Him/ If You See Her
TTITLE9=Collin Raye - I Can Still Feel You
TTITLE10=Suzy Bogguss - Somebody To Love
TTITLE11=Wade Hayes - When The Wrong One Loves You Right
EXTD=
EXTT0=
EXTT1=
EXTT2=
EXTT3=
EXTT4=
EXTT5=
EXTT6=
EXTT7=
EXTT8=
EXTT9=
EXTT10=
EXTT11=
PLAYORDER=
